- 
http://www.Speed.Cd      fast  and The Hottest Private Tracker on the net

   signup is open now

Please Seed back to make the speed Faster!!!

------------------nfo--------------------------
-[IMG]http://img843.imageshack.us/img843/4924/carjacked.jpg[/IMG]


[color=blue][size=5][b]Carjacked.2011.BDRip.XVID.AC3.HQ.Hive-CM8[/b][/size][/color]


[b]Thx Hive

CM8 Doing It Right The First Time :D


Source: Bluray

Video: 720x304 @bitrate 1800 2pass
Audio: English True HD AC3 640 to AC3 5.1 @448
Sample: yes included
Subs: yes english in srt /subs[/b]


[url]http://www.imdb.com/title/tt1321861/[/url]


General
Complete name                  : Carjacked.2011.BDRip.XVID.AC3.HQ.Hive-CM8.avi
Format                         : AVI
Format/Info                    : Audio Video Interleave
File size                      : 1.41 GiB
Duration                       : 1h 29mn
Overall bit rate               : 2 257 Kbps
Writing application            : Nandub v1.0rc2
Writing library                : Nandub build 1853/release

Video
ID                             : 0
Format                         : MPEG-4 Visual
Format profile                 : Advanced Simple@L5
Format settings, BVOP          : 1
Format settings, QPel          : Yes
Format settings, GMC           : No warppoints
Format settings, Matrix        : Default (H.263)
Muxing mode                    : Packed bitstream
Codec ID                       : XVID
Codec ID/Hint                  : XviD
Duration                       : 1h 29mn
Bit rate                       : 1 799 Kbps
Width                          : 720 pixels
Height                         : 304 pixels
Display aspect ratio           : 2.35:1
Frame rate                     : 23.976 fps
Color space                    : YUV
Chroma subsampling             : 4:2:0
Bit depth                      : 8 bits
Scan type                      : Progressive
Compression mode               : Lossy
Bits/(Pixel*Frame)             : 0.343
Stream size                    : 1.12 GiB (80%)
Writing library                : XviD 1.2.1 (UTC 2008-12-04)

Audio
ID                             : 1
Format                         : AC-3
Format/Info                    : Audio Coding 3
Mode extension                 : CM (complete main)
Codec ID                       : 2000
Duration                       : 1h 29mn
Bit rate mode                  : Constant
Bit rate                       : 448 Kbps
Channel(s)                     : 6 channels
Channel positions              : Front: L C R, Side: L R, LFE
Sampling rate                  : 48.0 KHz
Bit depth                      : 16 bits
Compression mode               : Lossy
Stream size                    : 287 MiB (20%)
Alignment                      : Split accross interleaves
Interleave, duration           : 42 ms (1.00 video frame)
Interleave, preload duration   : 500 ms


Plot:

A single mom and her child are carjacked by a bank robber. 


Cast:

Maria Bello	... 	Lorraine
Stephen Dorff	... 	Roy		
Catherine Dent	... 	Therapist
Kristen Kerr	... 	Young Mother


[img]http://img545.imageshack.us/img545/3061/51658246.png[/img]
[img]http://img3.imageshack.us/img3/3274/cacac.png[/img]
[img]http://img46.imageshack.us/img46/769/cacacaj.png[/img]
[img]http://img708.imageshack.us/img708/7200/cacacacam.png[/img]
[img]http://img221.imageshack.us/img221/2455/cacacacacad.png[/img]




Greetz

ViSiON,SPK,SANTi,3LT0N,FUSiON,YanKeeS,MAGNET,T0XiC,LKRG,FANTASIA-PLAY,FANTASIA-M,FLAWL3SS,
WBZ,BHRG,NOVA,D2U,THC,Vik,Rapeseed,SAFC,goldadvance,MEMORY100,KaN1vE,Unevano,Pinnz,Wayne,
Mr Hive,and all P2P groups
Great Work Guys :D

LOOKING FOR ANYTHING YOU WANT TO LOOK AND SOUND BETTER

CM8@hushmail.com